<?xml version="1.0" standalone="no"?>
<!DOCTYPE svg PUBLIC "-//W3C//DTD SVG 20010904//EN"
 "http://www.w3.org/TR/2001/REC-SVG-20010904/DTD/svg10.dtd">
<svg version="1.0" xmlns="http://www.w3.org/2000/svg"
 width="1024.000000pt" height="1024.000000pt" viewBox="0 0 1024.000000 1024.000000"
 preserveAspectRatio="xMidYMid meet">

<g transform="translate(0.000000,1024.000000) scale(0.100000,-0.100000)"
fill="#000000" stroke="none">
<path d="M5030 8193 c-52 -9 -127 -36 -185 -68 -92 -51 -93 -52 -785 -875 -49
-58 -238 -283 -422 -500 -927 -1098 -1026 -1220 -1073 -1315 -52 -108 -75
-205 -75 -318 0 -140 56 -313 132 -410 50 -63 336 -389 908 -1031 283 -319
569 -641 634 -715 379 -431 551 -615 610 -655 234 -155 534 -139 746 42 40 34
128 130 469 516 1622 1836 1618 1831 1662 1901 21 33 50 94 63 135 65 199 52
371 -42 555 -33 66 -55 93 -343 436 -108 129 -326 389 -485 579 -1083 1293
-1275 1520 -1341 1580 -123 113 -313 170 -473 143z m129 -604 c32 -11 252
-263 1022 -1169 473 -557 518 -612 524 -642 18 -79 45 -48 -757 -846 -412
-411 -760 -752 -772 -759 -29 -17 -81 -16 -114 1 -33 18 -1495 1482 -1511
1513 -17 33 -13 84 8 120 11 17 205 251 433 520 227 268 451 533 498 589 47
56 119 141 161 190 41 49 146 174 233 278 180 213 202 230 275 205z m1975
-2300 c35 -42 60 -130 53 -191 -13 -102 -23 -116 -596 -757 -384 -430 -944
-1054 -1101 -1226 -80 -88 -174 -192 -208 -232 -123 -139 -193 -139 -313 -1
-57 66 -403 451 -695 773 -760 839 -1154 1286 -1186 1346 -23 42 -28 64 -28
119 0 38 5 81 11 97 18 49 53 93 74 93 13 0 332 -312 930 -909 l910 -910 59
-16 c69 -20 126 -15 189 16 29 14 329 308 947 925 498 497 911 904 917 904 6
0 23 -14 37 -31z"/>
</g>
</svg>
